<?xml version="1.0" encoding="utf-8"?>
<!-- Generator: Adobe Illustrator 25.0.1, SVG Export Plug-In . SVG Version: 6.00 Build 0)  -->
<svg version="1.1" id="Layer_1" xmlns="http://www.w3.org/2000/svg" xmlns:xlink="http://www.w3.org/1999/xlink" x="0px" y="0px"
	 viewBox="0 0 100.4 100.4" style="enable-background:new 0 0 100.4 100.4;" xml:space="preserve">
<style type="text/css">
	.st0{fill:none;}
	.st1{fill:#FFFFFF;}
</style>
<path class="st0" d="M72,51.1l25.5-24.7c4.6-4.5,3.6-13.1-2.2-19.1S80.9,0,76.3,4.5L50.8,29.2L26,3.7C21.5-0.9,12.9,0.1,6.9,5.9
	c-6,5.8-7.3,14.4-2.8,19l24.8,25.6L3.4,75.3c-2.3,2.3-3.3,5.5-2.8,9.2c0.4,3.5,2.2,7,5,9.9c2.7,2.8,6.2,4.7,9.7,5.3
	c3.7,0.5,7-0.4,9.3-2.6l25.5-24.8l24.8,25.6c1.9,1.9,4.5,2.9,7.4,2.9c3.9,0,8.2-1.8,11.7-5.2c3.6-3.4,5.5-7.9,5.5-11.9
	c0-2.7-0.9-5.3-2.7-7.1L72,51.1z M92,93.5c-4.9,4.8-11.6,5.8-15,2.3L51.1,69.2c-0.2-0.3-0.6-0.4-1-0.4c-0.3,0-0.7,0.2-1,0.5
	L22.5,95.1c-1.7,1.6-4.1,2.2-6.8,1.8c-2.9-0.5-5.8-2.1-8.1-4.5c-2.3-2.5-3.8-5.4-4.2-8.3c-0.3-2.7,0.4-5.1,2-6.7L32,51.6
	c0.5-0.6,0.6-1.5,0-2.1L6.2,22.9C2.8,19.4,4,12.8,8.8,8.1c4.9-4.8,11.6-5.8,15-2.3l25.8,26.6c0.6,0.5,1.5,0.6,2.1,0L78.3,6.5
	c3.5-3.4,10.2-2.2,14.9,2.7c4.8,4.9,5.8,11.6,2.3,15L68.9,50c-0.5,0.6-0.6,1.5,0,2.1l25.8,26.5C98.1,82.1,96.9,88.8,92,93.5z"/>
<path class="st1" d="M94.7,78.6c3.4,3.5,2.2,10.2-2.7,14.9c-4.9,4.8-11.6,5.8-15,2.3L51.1,69.2c-0.2-0.3-0.6-0.4-1-0.4
	c-0.3,0-0.7,0.2-1,0.5L22.5,95.1c-1.7,1.6-4.1,2.2-6.8,1.8c-2.9-0.5-5.8-2.1-8.1-4.5c-2.3-2.5-3.8-5.4-4.2-8.3
	c-0.3-2.7,0.4-5.1,2-6.7L32,51.6c0.5-0.6,0.6-1.5,0-2.1L6.2,22.9C2.8,19.4,4,12.8,8.8,8.1c4.9-4.8,11.6-5.8,15-2.3l25.8,26.6
	c0.6,0.5,1.5,0.6,2.1,0L78.3,6.5c3.5-3.4,10.2-2.2,14.9,2.7c4.8,4.9,5.8,11.6,2.3,15L68.9,50c-0.5,0.6-0.6,1.5,0,2.1L94.7,78.6z"/>
</svg>
